<svg width="512" height="512" viewBox="0 0 512 512" fill="none" xmlns="http://www.w3.org/2000/svg">
  <defs>
    <linearGradient id="bg" x1="70" y1="60" x2="440" y2="470" gradientUnits="userSpaceOnUse">
      <stop stop-color="#171813"/>
      <stop offset="1" stop-color="#0F110C"/>
    </linearGradient>
    <linearGradient id="glow" x1="150" y1="120" x2="370" y2="380" gradientUnits="userSpaceOnUse">
      <stop stop-color="#D8FF69" stop-opacity="0.85"/>
      <stop offset="1" stop-color="#D8FF69" stop-opacity="0.0"/>
    </linearGradient>
    <filter id="soft" x="-20%" y="-20%" width="140%" height="140%" color-interpolation-filters="sRGB">
      <feGaussianBlur stdDeviation="18" result="blur"/>
    </filter>
  </defs>

  <rect x="28" y="28" width="456" height="456" rx="120" fill="url(#bg)"/>
  <circle cx="178" cy="170" r="120" fill="url(#glow)" filter="url(#soft)" opacity="0.9"/>

  <!-- permit outline -->
  <path d="M166 134h152l54 54v180c0 26.5-21.5 48-48 48H166c-26.5 0-48-21.5-48-48V182c0-26.5 21.5-48 48-48Z" stroke="#D8FF69" stroke-width="12" stroke-linejoin="round"/>
  <!-- fold -->
  <path d="M318 134v36c0 19.9 16.1 36 36 36h36" stroke="#D8FF69" stroke-width="12" stroke-linecap="round" stroke-linejoin="round"/>

  <!-- seal -->
  <circle cx="214" cy="256" r="52" fill="#D8FF69"/>
  <path d="M195 256l14 16 32-38" stroke="#14150F" stroke-width="16" stroke-linecap="round" stroke-linejoin="round"/>

  <!-- receipt lines -->
  <path d="M184 336h164" stroke="#EDEFE7" stroke-opacity="0.55" stroke-width="16" stroke-linecap="round"/>
  <path d="M184 380h112" stroke="#EDEFE7" stroke-opacity="0.55" stroke-width="16" stroke-linecap="round"/>
</svg>
